<?xml version="1.0" encoding="utf-8"?>
<!-- Generator: Adobe Illustrator 27.9.0, SVG Export Plug-In . SVG Version: 6.00 Build 0)  -->
<svg version="1.1" id="Слой_1" xmlns="http://www.w3.org/2000/svg" xmlns:xlink="http://www.w3.org/1999/xlink" x="0px" y="0px"
	 viewBox="0 0 22 22" style="enable-background:new 0 0 22 22;" xml:space="preserve">
<path d="M19.74,2.18C17.95,0.44,15.4,0,11.05,0h-0.09c-4.37,0-6.9,0.44-8.7,2.18C0.42,4.04,0,6.59,0,10.94v0.12
	c0,4.35,0.42,6.89,2.26,8.76C4.04,21.56,6.59,22,10.95,22h0.09c4.37,0,6.9-0.44,8.7-2.18c1.83-1.85,2.26-4.41,2.26-8.76v-0.12
	C22,6.59,21.58,4.05,19.74,2.18z M19.38,11.19c0,0.08-0.07,0.16-0.15,0.16c-3.01,0.11-4.84,0.5-6.12,1.77
	c-1.28,1.29-1.66,3.11-1.77,6.11c-0.01,0.08-0.08,0.15-0.16,0.15h-0.35c-0.08,0-0.16-0.07-0.16-0.15c-0.11-3.01-0.49-4.83-1.77-6.11
	s-3.11-1.66-6.12-1.77c-0.08-0.01-0.15-0.08-0.15-0.16v-0.35c0-0.08,0.07-0.16,0.15-0.16c3.01-0.11,4.84-0.5,6.12-1.77
	c1.29-1.28,1.67-3.11,1.78-6.13c0.01-0.08,0.08-0.15,0.16-0.15h0.35c0.08,0,0.16,0.07,0.16,0.15c0.11,3.02,0.5,4.84,1.78,6.13
	c1.29,1.28,3.11,1.66,6.12,1.77c0.08,0.01,0.15,0.08,0.15,0.16L19.38,11.19z"/>
</svg>
