<svg width="32" height="32" viewBox="0 0 32 32" fill="none" xmlns="http://www.w3.org/2000/svg">
<path d="M16.0003 29.3333C23.3641 29.3333 29.3337 23.3638 29.3337 16C29.3337 8.63616 23.3641 2.66663 16.0003 2.66663C8.63653 2.66663 2.66699 8.63616 2.66699 16C2.66699 23.3638 8.63653 29.3333 16.0003 29.3333Z" fill="white"/>
<path d="M12.1201 12C12.4336 11.1089 13.0523 10.3575 13.8667 9.87887C14.6811 9.40024 15.6386 9.22528 16.5697 9.38498C17.5007 9.54467 18.3452 10.0287 18.9536 10.7514C19.5619 11.4741 19.8949 12.3887 19.8935 13.3334C19.8935 16 15.8935 17.3334 15.8935 17.3334" stroke="#2F7BBE" stroke-width="2" stroke-linecap="round" stroke-linejoin="round"/>
<path d="M16 22.6666H16.0142" stroke="#2F7BBE" stroke-width="2" stroke-linecap="round" stroke-linejoin="round"/>
</svg>
