<?xml version="1.0" encoding="utf-8"?>
<!-- Generator: Adobe Illustrator 27.9.0, SVG Export Plug-In . SVG Version: 6.00 Build 0)  -->
<svg version="1.1" id="Слой_1" xmlns="http://www.w3.org/2000/svg" xmlns:xlink="http://www.w3.org/1999/xlink" x="0px" y="0px"
	 viewBox="0 0 24 22" style="enable-background:new 0 0 24 22;" xml:space="preserve">
<path d="M23.1,21.86h-5.06c-0.3,0-0.57-0.14-0.74-0.39l-3.68-5.31H6.32v4.8c0,0.5-0.4,0.9-0.9,0.9H0.9c-0.5,0-0.9-0.4-0.9-0.9V3.44
	c0-0.5,0.4-0.9,0.9-0.9h16.24c0.01,0,0.01,0,0.02,0c1.03,0,1.94,0.11,2.69,0.32c0.01,0,0.02,0.01,0.03,0.01
	c0.77,0.25,1.43,0.63,2.01,1.16c0.01,0.01,0.02,0.02,0.04,0.04c0.57,0.58,0.96,1.23,1.19,1.96c0.22,0.72,0.34,1.61,0.34,2.66v1.31
	c0,1.89-0.36,3.33-1.08,4.27c-0.5,0.66-1.21,1.16-2.1,1.49l3.54,4.65c0.21,0.27,0.24,0.64,0.09,0.94S23.44,21.86,23.1,21.86z
	 M18.51,20.06h2.78l-3.26-4.28c-0.19-0.25-0.24-0.59-0.12-0.88c0.12-0.29,0.38-0.5,0.7-0.55c1.11-0.17,1.9-0.56,2.34-1.15
	c0.47-0.62,0.71-1.72,0.71-3.19V8.69c0-0.87-0.09-1.58-0.26-2.12c-0.14-0.45-0.39-0.85-0.74-1.23c-0.39-0.35-0.8-0.59-1.31-0.76
	c-0.6-0.17-1.34-0.25-2.2-0.25c-0.01,0-0.01,0-0.02,0H1.8v15.73h2.72v-4.8c0-0.5,0.4-0.9,0.9-0.9h8.66c0.3,0,0.57,0.14,0.74,0.39
	L18.51,20.06z M16.41,12.3H5.42c-0.5,0-0.9-0.4-0.9-0.9V7.3c0-0.5,0.4-0.9,0.9-0.9h10.99c0.85,0,1.46,0.16,1.86,0.5
	c0.31,0.26,0.67,0.77,0.67,1.71v1.47c0,0.97-0.36,1.48-0.67,1.74c-0.38,0.33-0.95,0.47-1.83,0.48C16.43,12.3,16.42,12.3,16.41,12.3z
	 M6.32,10.5h10.07c0.01,0,0.02,0,0.02,0c0.4,0,0.6-0.04,0.68-0.06c0.02-0.05,0.04-0.16,0.04-0.35V8.61c0-0.18-0.03-0.28-0.04-0.33
	c-0.07-0.03-0.27-0.08-0.68-0.08H6.32V10.5z M17.08,10.48C17.08,10.48,17.08,10.48,17.08,10.48C17.08,10.48,17.08,10.48,17.08,10.48
	z M17.14,10.42C17.14,10.42,17.14,10.42,17.14,10.42C17.14,10.42,17.14,10.42,17.14,10.42z M17.13,8.29L17.13,8.29L17.13,8.29z
	 M17.08,8.25C17.08,8.25,17.08,8.25,17.08,8.25L17.08,8.25z"/>
<path d="M22.19,3.14c0.83,0,1.5-0.67,1.5-1.5s-0.67-1.5-1.5-1.5c-0.83,0-1.5,0.67-1.5,1.5S21.36,3.14,22.19,3.14z"/>
</svg>
