<?xml version="1.0" encoding="utf-8"?>
<!-- Generator: Adobe Illustrator 27.9.0, SVG Export Plug-In . SVG Version: 6.00 Build 0)  -->
<svg version="1.1" id="Слой_1" xmlns="http://www.w3.org/2000/svg" xmlns:xlink="http://www.w3.org/1999/xlink" x="0px" y="0px"
	 viewBox="0 0 15 15" style="enable-background:new 0 0 15 15;" xml:space="preserve">
<style type="text/css">
	.st0{fill:#FFFFFF;}
</style>
<path class="st0" d="M14.28,6.75L7.81,0.28H0.28v7.54l6.47,6.47c0.14,0.14,0.31,0.25,0.49,0.33c0.18,0.08,0.38,0.11,0.58,0.11
	s0.39-0.04,0.58-0.11c0.18-0.08,0.35-0.19,0.49-0.33l5.4-5.4c0.28-0.28,0.44-0.66,0.44-1.06S14.56,7.03,14.28,6.75z M5.84,5.24
	c-0.2,0.2-0.45,0.29-0.71,0.29s-0.51-0.1-0.71-0.29L3.64,4.46c-0.39-0.39-0.39-1.02,0-1.41s1.02-0.39,1.41,0l0.79,0.79
	C6.23,4.22,6.23,4.85,5.84,5.24z"/>
</svg>
