<svg width="17" height="16" viewBox="0 0 17 16" fill="none" xmlns="http://www.w3.org/2000/svg">
<path d="M0.298096 7.69988L4.20648 9.17401L5.73007 14.1324C5.79632 14.4675 6.19378 14.5345 6.45876 14.3335L8.64478 12.5243C8.84352 12.3233 9.17474 12.3233 9.43972 12.5243L13.3481 15.4056C13.6131 15.6066 14.0105 15.4726 14.0768 15.1375L16.9915 1.0663C17.0577 0.731271 16.7265 0.396244 16.3953 0.530256L0.298096 6.82881C-0.0993653 6.96282 -0.0993653 7.56587 0.298096 7.69988ZM5.53135 8.43694L13.2156 3.67953C13.3481 3.61252 13.4806 3.81354 13.3481 3.88055L7.05494 9.84407C6.85621 10.0451 6.65748 10.3131 6.65748 10.6481L6.45876 12.2563C6.45876 12.4573 6.12753 12.5243 6.06129 12.2563L5.26636 9.30802C5.06763 8.97299 5.20013 8.57096 5.53135 8.43694Z" fill="#2F7BBE"/>
</svg>
