<svg width="21" height="14" viewBox="0 0 21 14" fill="none" xmlns="http://www.w3.org/2000/svg">
<path d="M20.7401 11.8154C20.7401 11.7324 20.6571 11.7324 20.6571 11.6494C20.325 10.9852 19.5778 10.155 18.5815 9.24175C18.0834 8.82663 17.8343 8.49453 17.6682 8.32849C17.4192 7.9964 17.4192 7.74734 17.5022 7.41524C17.5852 7.16618 17.9173 6.75105 18.4985 6.00384C18.8306 5.58873 18.9966 5.33967 19.2457 5.0906C20.491 3.43014 21.0722 2.35084 20.9061 1.8527L20.8231 1.76968C20.7401 1.68666 20.6571 1.60364 20.491 1.60364C20.325 1.52062 20.0759 1.52062 19.8268 1.60364H16.672C16.589 1.60364 16.5889 1.60364 16.4229 1.60364C16.3399 1.60364 16.2569 1.60364 16.2569 1.60364H16.1738H16.0908L16.0078 1.68665C15.9248 1.76968 15.9248 1.76967 15.9248 1.8527C15.5927 2.76595 15.1776 3.51316 14.7624 4.34339C14.5134 4.7585 14.2643 5.17362 14.0152 5.50571C13.7662 5.83781 13.6001 6.08687 13.4341 6.25292C13.268 6.41896 13.102 6.50198 13.019 6.66803C12.9359 6.75105 12.7699 6.83408 12.7699 6.75106C12.6869 6.75106 12.6038 6.75105 12.6038 6.66803C12.5208 6.58501 12.4378 6.50198 12.3548 6.41896C12.2718 6.33594 12.2717 6.16989 12.1887 6.00384C12.1887 5.8378 12.1887 5.67175 12.1887 5.58873C12.1887 5.50571 12.1887 5.25665 12.1887 5.0906C12.1887 4.84153 12.1887 4.67548 12.1887 4.59246C12.1887 4.34339 12.1887 4.0113 12.1887 3.67921C12.1887 3.34712 12.1887 3.09804 12.1887 2.932C12.1887 2.76595 12.1887 2.51689 12.1887 2.35084C12.1887 2.10177 12.1887 1.93572 12.1887 1.8527C12.1887 1.76967 12.1057 1.60363 12.1057 1.52061C12.0227 1.43759 11.9397 1.35456 11.8566 1.27154C11.7736 1.18852 11.6076 1.18852 11.5245 1.1055C11.1094 1.02247 10.6113 0.939453 10.0301 0.939453C8.70178 0.939453 7.78852 1.02248 7.45643 1.18852C7.29039 1.27155 7.12434 1.35457 7.04132 1.52061C6.87527 1.68666 6.87527 1.76968 6.95829 1.76968C7.3734 1.85271 7.7055 2.01874 7.87155 2.26781L7.95457 2.43387C8.0376 2.51689 8.03758 2.68293 8.1206 2.932C8.20363 3.18107 8.20363 3.43014 8.20363 3.76223C8.20363 4.26037 8.20363 4.75851 8.20363 5.0906C8.20363 5.50571 8.1206 5.75478 8.1206 6.00384C8.1206 6.25291 8.0376 6.41896 7.95457 6.50199C7.87155 6.66803 7.87154 6.75106 7.78852 6.75106C7.78852 6.75106 7.78851 6.83407 7.70549 6.83407C7.62247 6.83407 7.53945 6.9171 7.3734 6.9171C7.29038 6.9171 7.12434 6.83408 7.04132 6.75106C6.87527 6.66804 6.70922 6.50199 6.6262 6.33594C6.46016 6.1699 6.2941 5.92082 6.12806 5.58873C5.96201 5.25664 5.71293 4.92455 5.54689 4.42641L5.38086 4.09433C5.29784 3.92828 5.13179 3.59618 4.96574 3.18107C4.7997 2.76595 4.63365 2.43387 4.4676 2.01875C4.38458 1.85271 4.30157 1.76968 4.21854 1.68665H4.13551C4.13551 1.68665 4.05248 1.60364 3.96946 1.60364C3.88643 1.60364 3.80342 1.52061 3.7204 1.52061H0.731569C0.399477 1.52061 0.233434 1.60363 0.150411 1.68665L0.0673828 1.76968C0.0673828 1.76968 0.0673828 1.8527 0.0673828 1.93573C0.0673828 2.01875 0.0673879 2.10177 0.150411 2.26781C0.565525 3.26409 1.06366 4.26037 1.5618 5.25664C2.05994 6.1699 2.55808 7.00013 2.89017 7.58129C3.30528 8.16245 3.63737 8.74361 4.05249 9.24175C4.4676 9.73988 4.71666 10.072 4.79969 10.238C4.96573 10.4041 5.04875 10.4871 5.13177 10.5701L5.38086 10.8192C5.5469 10.9852 5.79597 11.2343 6.12806 11.4834C6.46015 11.7324 6.87526 11.9815 7.29038 12.2306C7.70549 12.4796 8.20364 12.6457 8.70177 12.8117C9.28294 12.9778 9.78107 13.0608 10.2792 12.9778H11.5245C11.7736 12.9778 11.9397 12.8948 12.1057 12.7287L12.1887 12.6457C12.1887 12.5627 12.2718 12.5627 12.2718 12.4796C12.2718 12.3966 12.2718 12.3136 12.2718 12.1475C12.2718 11.8155 12.2718 11.5664 12.3548 11.3173C12.4378 11.0683 12.4378 10.9022 12.5208 10.7362C12.6039 10.5701 12.6869 10.4871 12.7699 10.4041C12.8529 10.321 12.9359 10.238 12.9359 10.238H13.019C13.185 10.155 13.4341 10.238 13.6001 10.4041C13.8492 10.5701 14.0982 10.8192 14.2643 11.0682C14.4303 11.3173 14.6794 11.5664 15.0115 11.8985C15.3436 12.2306 15.5927 12.4796 15.7587 12.5627L16.0078 12.7287C16.1738 12.8117 16.3399 12.8948 16.589 12.9778C16.838 13.0608 17.0041 13.0608 17.1701 13.0608L19.9929 12.9778C20.242 12.9778 20.491 12.8948 20.6571 12.8117C20.8231 12.7287 20.9061 12.6457 20.9061 12.4796C20.9061 12.3966 20.9061 12.2306 20.9061 12.1475C20.7401 11.9815 20.7401 11.8985 20.7401 11.8154Z" fill="#2F7BBE"/>
</svg>
