<svg width="19" height="20" viewBox="0 0 19 20" fill="none" xmlns="http://www.w3.org/2000/svg">
<path d="M16.2195 3.27083C14.4321 1.48958 12.0488 0.5 9.5331 0.5C4.30313 0.5 0.0662011 4.72222 0.0662011 9.93403C0.0662011 11.5833 0.529617 13.2326 1.32404 14.6181L0 19.5L5.03136 18.1806C6.4216 18.9062 7.94425 19.3021 9.5331 19.3021C14.7631 19.3021 19 15.0799 19 9.86806C18.9338 7.42708 18.007 5.05208 16.2195 3.27083ZM14.101 13.2986C13.9024 13.8264 12.9756 14.3542 12.5122 14.4201C12.115 14.4861 11.5854 14.4861 11.0557 14.3542C10.7247 14.2222 10.2613 14.0903 9.73171 13.8264C7.34843 12.8368 5.82579 10.4618 5.69338 10.2639C5.56098 10.1319 4.70035 9.01042 4.70035 7.82292C4.70035 6.63542 5.29617 6.10764 5.49477 5.84375C5.69338 5.57986 5.95819 5.57986 6.15679 5.57986C6.2892 5.57986 6.4878 5.57986 6.62021 5.57986C6.75261 5.57986 6.95122 5.51389 7.14982 5.97569C7.34843 6.4375 7.81184 7.625 7.87805 7.69097C7.94425 7.82292 7.94425 7.95486 7.87805 8.08681C7.81184 8.21875 7.74564 8.35069 7.61324 8.48264C7.48083 8.61458 7.34843 8.8125 7.28223 8.87847C7.14982 9.01042 7.01742 9.14236 7.14982 9.34028C7.28223 9.60417 7.74564 10.3299 8.47387 10.9896C9.4007 11.7812 10.1289 12.0451 10.3937 12.1771C10.6585 12.309 10.7909 12.2431 10.9233 12.1111C11.0557 11.9792 11.5192 11.4514 11.6516 11.1875C11.784 10.9236 11.9826 10.9896 12.1812 11.0556C12.3798 11.1215 13.5714 11.7153 13.77 11.8472C14.0348 11.9792 14.1672 12.0451 14.2334 12.1111C14.2996 12.309 14.2997 12.7708 14.101 13.2986Z" fill="#2BA467"/>
</svg>
