<svg width="20" height="14" viewBox="0 0 20 14" fill="none" xmlns="http://www.w3.org/2000/svg">
<path d="M20 5.37373C20 4.94949 19.927 4.45454 19.927 3.88889C19.854 3.32323 19.781 2.75757 19.708 2.26262C19.562 1.69697 19.3431 1.27273 18.9051 0.919194C18.5401 0.565659 18.0292 0.353531 17.5183 0.282824C15.8394 0.0707027 13.3577 0 10 0C6.64235 0 4.08759 0.0707027 2.48175 0.282824C1.9708 0.353531 1.45985 0.565659 1.09489 0.919194C0.729927 1.27273 0.437952 1.69697 0.291966 2.26262C0.145981 2.75757 0.0729972 3.25252 0.0729972 3.88889C4.45403e-06 4.45454 0 4.94949 0 5.37373C0 5.79797 0 6.29292 0 6.99999C0 7.70707 0 8.27272 0 8.62626C0 9.0505 0.0729972 9.54545 0.0729972 10.1111C0.14599 10.6768 0.218974 11.2424 0.291966 11.7374C0.437952 12.303 0.656934 12.7273 1.09489 13.0808C1.45985 13.4343 1.9708 13.6465 2.48175 13.7172C4.16058 13.9293 6.64235 14 10 14C13.3577 14 15.9124 13.9293 17.5183 13.7172C18.0292 13.6465 18.5401 13.4343 18.9051 13.0808C19.2701 12.7273 19.562 12.303 19.708 11.7374C19.854 11.2424 19.927 10.7475 19.927 10.1111C20 9.54545 20 9.0505 20 8.62626C20 8.20202 20 7.70707 20 6.99999C20 6.29292 20 5.72727 20 5.37373ZM13.8686 7.56565L8.1022 11.0303C8.0292 11.101 7.88322 11.1717 7.73723 11.1717C7.59125 11.1717 7.51825 11.1717 7.37227 11.101C7.15329 10.9596 7.00731 10.7475 7.00731 10.4646V3.46464C7.00731 3.18181 7.15329 2.9697 7.37227 2.82828C7.59125 2.68687 7.88322 2.68687 8.1022 2.82828L13.8686 6.29292C14.0876 6.43434 14.2336 6.64646 14.2336 6.85858C14.2336 7.0707 14.0876 7.42424 13.8686 7.56565Z" fill="#E01E4F"/>
</svg>
