<?xml version="1.0" encoding="utf-8"?>
<!-- Generator: Adobe Illustrator 27.9.0, SVG Export Plug-In . SVG Version: 6.00 Build 0)  -->
<svg version="1.1" id="Слой_1" xmlns="http://www.w3.org/2000/svg" xmlns:xlink="http://www.w3.org/1999/xlink" x="0px" y="0px"
	 viewBox="0 0 20 21" style="enable-background:new 0 0 20 21;" xml:space="preserve">
<style type="text/css">
	.st0{fill:#A6A9AE;}
</style>
<path class="st0" d="M9.2,17.3c-4.2,0-7.7-3.4-7.7-7.7C1.5,5.4,4.9,2,9.2,2c4.2,0,7.7,3.4,7.7,7.7C16.8,13.9,13.4,17.3,9.2,17.3z
	 M9.2,4C6,4,3.5,6.5,3.5,9.7s2.5,5.7,5.7,5.7s5.7-2.5,5.7-5.7S12.3,4,9.2,4z"/>
<path class="st0" d="M17.5,19c-0.3,0-0.5-0.1-0.7-0.3l-3.6-3.6c-0.4-0.4-0.4-1,0-1.4s1-0.4,1.4,0l3.6,3.6c0.4,0.4,0.4,1,0,1.4
	C18,18.9,17.8,19,17.5,19z"/>
<path class="st0" d="M9.2,13.2c-0.6,0-1-0.4-1-1v-5c0-0.6,0.4-1,1-1s1,0.4,1,1v5C10.2,12.7,9.7,13.2,9.2,13.2z"/>
<path class="st0" d="M11.7,10.7h-5c-0.6,0-1-0.4-1-1s0.4-1,1-1h5c0.6,0,1,0.4,1,1S12.2,10.7,11.7,10.7z"/>
</svg>
